<svg id="Lager_1" data-name="Lager 1" xmlns="http://www.w3.org/2000/svg" width="220.0002mm" height="40.0001mm" viewBox="0 0 623.6225 113.3862">
  <defs>
    <style>
      .cls-1 {
        fill: #a0202c;
      }

      .cls-2 {
        fill: #fbc900;
      }

      .cls-3 {
        fill: #e41f13;
      }

      .cls-4 {
        fill: #1d1d1b;
      }

      .cls-5 {
        fill: none;
      }
    </style>
  </defs>
  <title>Logotyp</title>
  <path class="cls-1" d="M532.4067,66.6929c-.0264.4355-.5684,11.5078,7.2754,19.8173,5.4658,5.79,13.6123,8.7256,24.2109,8.7256,10.71,0,18.9141-2.9326,24.3838-8.7177,7.6387-8.0782,7.1377-18.6875,7.1123-19.1358L595.39,20.23l-62.9834,0Z"/>
  <path class="cls-2" d="M554.36,93.186a26.2412,26.2412,0,0,1-13.8691-7.4219,24.2487,24.2487,0,0,1-4.6914-7.2753l-.461-1.168a30.2879,30.2879,0,0,1-1.8427-10.0537c0-.3379.0088-.5293.01-.543,0,0,.001-44.32.001-45.3945l60.7842,0V67.4136c.001.0166.0088.1884.0088.49,0,2.1709-.4112,11.0869-6.8311,17.8682-5.2539,5.55-13.1855,8.3642-23.5752,8.3642a46.0853,46.0853,0,0,1-8.3183-.707Z"/>
  <path class="cls-3" d="M594.3,42.3213a9.7074,9.7074,0,0,1-1.1387,2.0053,22.3975,22.3975,0,0,1-5.2451,4.1661,17.89,17.89,0,0,0-3.7032,3.24,12.2237,12.2237,0,0,0-2.3916,4.397l-.3086.7719-.8486,2.8536a15.4116,15.4116,0,0,1-2.3916,5.0146,17.8955,17.8955,0,0,1-4.0117,4.166L572.95,69.63a14.3181,14.3181,0,0,0-3.78,3.163c-1.6768,1.9034-2.6982,5.1485-3.7793,8.2549a23.2659,23.2659,0,0,1-2.0059,4.4737c-1.8574,2.665-2.3964,3.2373-3.78,4.0888l-1.543,1.08a14.6429,14.6429,0,0,0-2.9111,2.6934c-5.1827-1.02-9.211-2.7666-12.3409-5.4444a21.9754,21.9754,0,0,1-7.2265-9.8955c2.8906-2.4844,7.5332-6.6621,8.3613-9.8027l.3086-1.4658a21.3749,21.3749,0,0,1,8.3311-12.1119,19.7271,19.7271,0,0,0,4.86-4.6284c.9053-1.1665,1.3106-2.686,2.083-4.706,1.11-2.9073,2.38-6.3853,4.5518-8.7945a23.8432,23.8432,0,0,1,2.9316-2.4687,26.0719,26.0719,0,0,0,5.3994-5.0913c1.6348-2.1226,2.8575-5.8,3.3946-7.6543L594.3,21.3159Z"/>
  <g>
    <path class="cls-4" d="M252.874,27.12c0-5.2832-4.1738-5.46-6.6455-5.6294V20.0473l13.2041-1.872V54.8916l16.0112-16.7h5.7925L265.4819,54.6348l18.6558,23.1684h-7.9229L259.6025,57.021h-.17V77.8032H252.874Z"/>
    <path class="cls-4" d="M283.6123,58.2026c0-12.5132,5.1889-20.9458,17.6289-20.9458,11.16,0,17.8842,8.0908,17.8842,20.8618,0,12.8653-5.7871,20.6231-17.7182,20.6231C290.0029,78.7417,283.6123,70.396,283.6123,58.2026Zm17.88,17.208c9.7168,0,10.3936-10.7334,10.3936-17.208,0-6.9785-1.3633-17.6235-10.56-17.6235-10.0532,0-10.478,10.645-10.478,17.6235C290.8481,64.5932,292.3857,75.4106,301.4921,75.4106Z"/>
    <path class="cls-4" d="M414.9018,37.2568c-7.66,0-11.1592,7.3247-12.43,10.2212h-.1728c0-6.0444-2.1367-10.2212-10.1367-10.2212-6.8995,0-11.2452,7.2407-12.2666,10.2212h-.1748l-.0411-.0864c-.2441-5.4409-1.6738-10.1348-10.081-10.1348-7.6709,0-11.1641,7.3247-12.4356,10.2212h-.1728c0-6.0444-2.1319-10.2212-10.1358-10.2212-6.9013,0-11.2451,7.2407-12.2724,10.2212h-.17V37.2568l-13.0313,2.0464v1.4482c2.4717.2515,6.4746.5093,6.4746,5.6192V77.8032h6.5567V57.53c0-7.0718,5.0322-16.0962,10.4785-16.0962,5.625,0,5.625,4.2558,5.625,8.8569V77.8032h6.5576V57.19c0-7.9277,5.8779-15.7563,10.3066-15.7563,5.1944,0,5.7285,3.5693,5.7832,8.8506v27.519h6.5674V57.3022c.1045-7.0366,5.0742-15.8686,10.4737-15.8686,5.6152,0,5.6152,4.2558,5.6152,8.8569V77.8032h6.56V57.19c0-7.9277,5.8818-15.7563,10.31-15.7563,5.7979,0,5.7979,4.4292,5.7979,10.7295v25.64h6.5507V50.8C425.0385,44.0727,425.0385,37.2568,414.9018,37.2568Z"/>
    <path class="cls-4" d="M481.9253,37.2568c-8.5206,0-12.9493,8.0069-14.22,11.3286h-.167V37.2568h-.0009l-13.0323,2.0464v1.4482c2.47.2515,6.4746.5093,6.4746,5.6192V58.5532c0,5.5361-5.2773,16.0127-10.9033,16.0127-5.7969,0-7.1553-5.1934-7.1553-10.7334V37.2568l-12.9531,2.0464v1.4482c2.3906.2515,6.3946.5093,6.3946,5.6192V62.7192c0,9.461,2.1259,16.0225,11.6689,16.0225,7.6709,0,11.6689-7.2393,12.78-10.3076h.1679v9.3691h6.5586V57.4985c.02-5.63,5.793-16.0649,12.0039-16.0649,5.9659,0,5.9659,4.2558,5.9659,8.8569V77.8032h6.5576V47.478C492.0659,41.4336,490.1889,37.2568,481.9253,37.2568Z"/>
    <path class="cls-4" d="M111.7324,37.2851c-8.0928,0-10.2237,6.5586-11.3355,10.1324h-.1709V37.2851L87.1933,39.7793,81.07,40.873,70.3891,69.05l-12.69-30.8311H37.6933V25.2749l-6.4809,5.709v7.2353l-2.4053-.0049V41.105l2.4053.0151V66.7514c0,8.0137.7714,12.0186,12.1826,12.0186a23.4731,23.4731,0,0,0,4.8569-.5146V75.103a20.0852,20.0852,0,0,1-3.2344.3359c-4.1762,0-7.24-1.1-7.24-6.22V41.1108H45.87c5.7.4492,6.3408,1.314,8.5923,6.7364L67.0708,77.8315l-1.1128,2.98c-2.8067,7.3242-4.1734,11.0752-7.7471,11.0752-4.0024,0-5.1157-4.8584-5.1157-7.0733H45.6894c0,3.0635,2.2984,10.3965,11.3262,10.3965,8.0112,0,10.2251-5.9609,13.8032-15.333L84.143,44.519c-.0009,0,.961-2.4839,3.2407-2.5068,1.9688-.0571,6.2842.6333,6.2842,5.999v29.82h6.5581v-20.44c0-5.2007,1.1988-13.5474,9.4624-13.5474a11.0587,11.0587,0,0,1,2.81.5977V37.3691A2.3851,2.3851,0,0,0,111.7324,37.2851Z"/>
    <path class="cls-4" d="M145.9423,77.2329A33.6415,33.6415,0,0,1,135.3769,78.77c-12.5151,0-19.8432-7.7588-19.8432-21.9775,0-12.2666,4.6806-19.5074,17.123-19.5074,8.0078,0,14.31,4.6861,14.31,14.8228v1.2744H122.0893v1.79c0,8.2631,5.9653,20.267,17.8032,20.267a23.7487,23.7487,0,0,0,6.05-1.0146ZM139.5507,49.72c0-4.7744-2.8916-9.1133-8.0063-9.1133-7.7471,0-9.1172,6.9839-9.3691,9.8794h17.3754Z"/>
    <path class="cls-4" d="M176.521,44.7222c-1.5079-1.0474-5.5328-4.1153-10.3072-4.1153-3.6587,0-7.07,1.3643-7.07,5.4507,0,8.5215,20.022,7.1577,20.022,20.5259,0,8.5195-6.4771,12.1865-15.1655,12.1865a33.0178,33.0178,0,0,1-10.9859-1.7051v-7.123c.85.6172,6.0425,5.497,11.3311,5.497,5.1079,0,8.8564-1.8769,8.8564-7.2343,0-8.6885-20.021-8.5147-20.021-19.76,0-6.5576,3.9185-11.16,13.89-11.16a38.2609,38.2609,0,0,1,9.4507,1.4478Z"/>
    <path class="cls-4" d="M183.8291,58.2309c0-12.5136,5.1943-20.9458,17.6318-20.9458,11.1611,0,17.8857,8.0909,17.8857,20.8619,0,12.8642-5.7944,20.623-17.7158,20.623C190.2129,78.77,183.8291,70.4243,183.8291,58.2309ZM189.7,26.64a4.3617,4.3617,0,0,1,4.3442-4.3447,4.3453,4.3453,0,1,1,0,8.689A4.3643,4.3643,0,0,1,189.7,26.64Zm12.0146,48.7993c9.7075,0,10.3945-10.7333,10.3945-17.208,0-6.9785-1.3642-17.624-10.5644-17.624-10.0523,0-10.4756,10.6455-10.4756,17.624C191.0693,64.6216,192.6015,75.4389,201.7148,75.4389Zm2.98-48.7993a4.3867,4.3867,0,1,1,4.4282,4.3443A4.3786,4.3786,0,0,1,204.6943,26.64Z"/>
  </g>
  <rect class="cls-5" width="623.6225" height="113.3862"/>
  <path class="cls-2" d="M557.8,57.3579a9.7412,9.7412,0,1,1,9.7412,9.74A9.7522,9.7522,0,0,1,557.8,57.3579Z"/>
  <path class="cls-2" d="M572.4907,36.65a9.7407,9.7407,0,1,1,9.7412,9.7407A9.7519,9.7519,0,0,1,572.4907,36.65Z"/>
  <path class="cls-2" d="M543.1254,78.3891a9.74,9.74,0,1,1,9.7413,9.7413A9.7524,9.7524,0,0,1,543.1254,78.3891Z"/>
  <path class="cls-3" d="M574.3071,57.3579a6.7928,6.7928,0,0,1-.1279,1.3h-2.7276V56.0293h2.7237A6.851,6.851,0,0,1,574.3071,57.3579Zm-13.5322,0a6.8421,6.8421,0,0,1,.1328-1.3286h2.9336v2.6284h-2.9375A6.7849,6.7849,0,0,1,560.7749,57.3579Zm8.1855-1.3286v2.6284h-2.6279V56.0293Zm4.16-2.4907h-1.669V51.8462A6.8463,6.8463,0,0,1,573.1206,53.5386Zm-4.16-2.7935v2.7935h-2.6279V50.706a6.5806,6.5806,0,0,1,2.6279.0391Zm-5.1191.9551v1.8384h-1.8789A6.8009,6.8009,0,0,1,563.8413,51.7ZM561.94,61.1489h1.9014v1.8672A6.84,6.84,0,0,1,561.94,61.1489Zm4.3926,2.8623V61.1489H568.96v2.8233a6.8085,6.8085,0,0,1-1.4189.1513A6.9335,6.9335,0,0,1,566.3325,64.0112Zm5.1191-1.1406V61.1489h1.6914A6.8615,6.8615,0,0,1,571.4516,62.8706Z"/>
  <path class="cls-3" d="M588.9975,36.65a6.7743,6.7743,0,0,1-.1279,1.2988h-2.7285V35.3213h2.7246A6.8421,6.8421,0,0,1,588.9975,36.65Zm-13.5322,0a6.8343,6.8343,0,0,1,.1328-1.3286h2.9336v2.6274h-2.9375A6.7744,6.7744,0,0,1,575.4653,36.65Zm8.1846-1.3286v2.6274h-2.627V35.3213Zm4.16-2.4912h-1.6689V31.1377A6.8267,6.8267,0,0,1,587.81,32.83Zm-4.16-2.7935V32.83h-2.627V29.9975a6.8015,6.8015,0,0,1,1.209-.1137A6.7272,6.7272,0,0,1,583.65,30.0366Zm-5.1182.9556V32.83h-1.8789A6.7993,6.7993,0,0,1,578.5317,30.9922ZM576.63,40.44h1.9014v1.8677A6.83,6.83,0,0,1,576.63,40.44Zm4.3926,2.8618V40.44h2.627v2.8233a6.5845,6.5845,0,0,1-2.627.0385Zm5.1182-1.14V40.44h1.6924A6.8446,6.8446,0,0,1,586.1411,42.1621Z"/>
  <path class="cls-3" d="M559.6313,78.3891a6.7563,6.7563,0,0,1-.1279,1.2979h-2.7285V77.061h2.7246A6.8338,6.8338,0,0,1,559.6313,78.3891Zm-13.5312,0a6.757,6.757,0,0,1,.1337-1.3281h2.9336v2.626H546.23A6.7562,6.7562,0,0,1,546.1,78.3891Zm8.1855-1.3281v2.626h-2.6269V77.061Zm4.1582-2.4912h-1.6689V72.8764A6.822,6.822,0,0,1,558.4438,74.57Zm-4.1582-2.7949V74.57h-2.6269v-2.834a6.9329,6.9329,0,0,1,1.208-.1123A6.7874,6.7874,0,0,1,554.2856,71.7749Zm-5.1182.956V74.57h-1.88A6.7951,6.7951,0,0,1,549.1674,72.7309Zm-1.9023,9.4473h1.9023v1.8682A6.8206,6.8206,0,0,1,547.2651,82.1782Zm4.3936,2.8623V82.1782h2.6269v2.8232a6.7222,6.7222,0,0,1-1.4189.1543A6.6538,6.6538,0,0,1,551.6587,85.04Zm5.1162-1.14V82.1782h1.6914A6.7869,6.7869,0,0,1,556.7749,83.9009Z"/>
  <path class="cls-3" d="M553.1186,34.0952c.2949-3.1064-1.9971-7.0972,1.1338-9.1382-1.9951,5.2383,5.0791,9.3882.249,14.104l-2.5166-1.542A10.37,10.37,0,0,0,553.1186,34.0952Zm-13.2207-2.6069c.8838-2.041,2.3809-4.2188,1.3828-6.6216a3.0016,3.0016,0,0,1,1.4737,2.6079c-.045,3.2866-2.1758,6.8481.25,9.7275a21.6517,21.6517,0,0,1-2.63,1.791C538.6294,37.0434,538.8325,33.687,539.8979,31.4883Zm14.1943,11.1792c0,1.3139-1.2919,1.519-1.9492,2.29a2.2243,2.2243,0,0,0,0-2.1323c-.3633-.5884-1.0664-.7022-1.6328-.9063a4.2515,4.2515,0,0,1-.8154,3.3565c-.3633-.8169.498-2.3589-.5-3.0161-.2735-.4317-.8838-.3628-1.292-.6582a10.0232,10.0232,0,0,1-.6582,4.58c-1.044-1.1562-.27-3.5141-1.3145-4.8979-.5224.499-1.248.8393-1.2939,1.6328-.2949.8848.16,1.6782.2275,2.5166a10.0974,10.0974,0,0,1-1.291-4.1494c-.6806.6128-1.6123,1.2475-1.4746,2.2676-.16.59.293.8842.2481,1.4062-.3624-.522-1.1788-.6128-1.1563-1.3154l.1826-.9073c-2.3369.5884-3.2656-1.6777-4.58-2.7656a7.4273,7.4273,0,0,1,3.3536,1.95c.205-.0224.456.1128.5683-.1587V41.352a9.8417,9.8417,0,0,0-2.29-1.7006,5.4053,5.4053,0,0,1,2.6982,1.3828c.2051-.0225.4531-.1138.4756-.3394.0918-.4766-.4307-.5225-.6338-.8857,2.1533-1.7,4.5108-3.4912,7.5723-2.856a23.8758,23.8758,0,0,1,5.24,2.6983c.043.249-.6806.3393-.5683.8159.5683.93,1.1337-.34,1.6337-.4077a6.7385,6.7385,0,0,1,2.2676-.4986,6.367,6.367,0,0,0-3.0176,1.7227.51.51,0,0,0,.3409.6352,8.8457,8.8457,0,0,1,3.6728-1.792C556.4741,40.7851,556.2036,43.5058,554.0922,42.6675Z"/>
  <path class="cls-1" d="M555.8852,38.7441a7.1955,7.1955,0,0,0,.749-5.7143c-1.0214-2.7666-3.1523-6.0767-1.1572-9.07a6.0838,6.0838,0,0,0-1.4521.1816c-5.0332,2.9248.6142,8.979-2.9483,12.97a7.5722,7.5722,0,0,0-7.2558-.2495c-1.792-1.5879-1.1114-4.4888-.6563-6.5986a8.5126,8.5126,0,0,0,.0654-4.33,4.0775,4.0775,0,0,0-3.332-2.3814c.2481,1.065.8613,1.8135.9746,2.9473-.3857,3.4014-3.1963,5.8052-2.6064,9.6372a23.4071,23.4071,0,0,0,.9736,2.8569,8.17,8.17,0,0,0-3.9219-.1577,4.1887,4.1887,0,0,0,.4981,1.2242c1.68,1.4741,2.2226,3.1508,4.5586,3.5825.4072,1.542,1.6787,1.8813,2.6972,3.1753a19.5883,19.5883,0,0,0-.0673-3.6743c.5459,1.4741,1.4062,2.8344,1.8593,4.331a5.6893,5.6893,0,0,0,.7491-1.0649c.4755-1.294-.6133-2.45,0-3.584-.0909,1.77.6806,3.1972,1.2236,4.74l.3174.0679c1.1572-1.0889,1.4521-2.9258,1.6328-4.49a8.1107,8.1107,0,0,0,.748,4.1723,16.9757,16.9757,0,0,0,1.8594-4.082c.1377.2275.3408.4316.25.7256-.59.726-.2275,1.86-.3174,2.7895a23.3621,23.3621,0,0,1,2.8565-2.29c.7431-1.2886,1.8828-.4541,2.4511-1.6333.7481-1.36,2.38-2.2676,3.5811-3.5816A12.008,12.008,0,0,0,555.8852,38.7441Zm-2.7666-4.6489c.2949-3.1064-1.9971-7.0972,1.1338-9.1382-1.9951,5.2383,5.0791,9.3882.249,14.104l-2.5166-1.542A10.37,10.37,0,0,0,553.1186,34.0952Zm-13.2207-2.6069c.8838-2.041,2.3809-4.2188,1.3828-6.6216a3.0016,3.0016,0,0,1,1.4737,2.6079c-.045,3.2866-2.1758,6.8481.25,9.7275a21.6517,21.6517,0,0,1-2.63,1.791C538.6294,37.0434,538.8325,33.687,539.8979,31.4883Zm14.1943,11.1792c0,1.3139-1.2919,1.519-1.9492,2.29a2.2243,2.2243,0,0,0,0-2.1323c-.3633-.5884-1.0664-.7022-1.6328-.9063a4.2515,4.2515,0,0,1-.8154,3.3565c-.3633-.8169.498-2.3589-.5-3.0161-.2735-.4317-.8838-.3628-1.292-.6582a10.0232,10.0232,0,0,1-.6582,4.58c-1.044-1.1562-.27-3.5141-1.3145-4.8979-.5224.499-1.248.8393-1.2939,1.6328-.2949.8848.16,1.6782.2275,2.5166a10.0974,10.0974,0,0,1-1.291-4.1494c-.6806.6128-1.6123,1.2475-1.4746,2.2676-.16.59.293.8842.2481,1.4062-.3624-.522-1.1788-.6128-1.1563-1.3154l.1826-.9073c-2.3369.5884-3.2656-1.6777-4.58-2.7656a7.4273,7.4273,0,0,1,3.3536,1.95c.205-.0224.456.1128.5683-.1587V41.352a9.8417,9.8417,0,0,0-2.29-1.7006,5.4053,5.4053,0,0,1,2.6982,1.3828c.2051-.0225.4531-.1138.4756-.3394.0918-.4766-.4307-.5225-.6338-.8857,2.1533-1.7,4.5108-3.4912,7.5723-2.856a23.8758,23.8758,0,0,1,5.24,2.6983c.043.249-.6806.3393-.5683.8159.5683.93,1.1337-.34,1.6337-.4077a6.7385,6.7385,0,0,1,2.2676-.4986,6.367,6.367,0,0,0-3.0176,1.7227.51.51,0,0,0,.3409.6352,8.8457,8.8457,0,0,1,3.6728-1.792C556.4741,40.7851,556.2036,43.5058,554.0922,42.6675Z"/>
  <g>
    <g>
      <path class="cls-1" d="M556.75,57.3579a10.7905,10.7905,0,1,0,10.7911-10.791A10.8031,10.8031,0,0,0,556.75,57.3579Zm1.05,0a9.7412,9.7412,0,1,1,9.7412,9.74A9.7522,9.7522,0,0,1,557.8,57.3579Z"/>
      <path class="cls-1" d="M567.5415,49.5425a7.8154,7.8154,0,1,0,7.8154,7.8154A7.8241,7.8241,0,0,0,567.5415,49.5425Zm6.7656,7.8154a6.7928,6.7928,0,0,1-.1279,1.3h-2.7276V56.0293h2.7237A6.851,6.851,0,0,1,574.3071,57.3579Zm-13.5322,0a6.8421,6.8421,0,0,1,.1328-1.3286h2.9336v2.6284h-2.9375A6.7849,6.7849,0,0,1,560.7749,57.3579Zm8.1855-1.3286v2.6284h-2.6279V56.0293Zm.6826-.6831H565.65V59.34h3.9931Zm1.125,0V59.34H574.01a6.8177,6.8177,0,0,1-.4658,1.126H570.768v2.8369a6.6008,6.6008,0,0,1-1.125.4824V60.4663H565.65v3.3828a6.7252,6.7252,0,0,1-1.126-.4434V60.4663h-2.9854a6.7326,6.7326,0,0,1-.4658-1.126h3.4512V55.3462H561.08a6.7334,6.7334,0,0,1,.4717-1.1255h2.9717v-2.91a6.6851,6.6851,0,0,1,1.126-.4438v3.3535h3.9931v-3.29a6.644,6.644,0,0,1,1.125.483v2.8071H573.53a6.6426,6.6426,0,0,1,.4717,1.1255Zm2.3526-1.8076h-1.669V51.8462A6.8463,6.8463,0,0,1,573.1206,53.5386Zm-4.16-2.7935v2.7935h-2.6279V50.706a6.5806,6.5806,0,0,1,2.6279.0391Zm-5.1191.9551v1.8384h-1.8789A6.8009,6.8009,0,0,1,563.8413,51.7ZM561.94,61.1489h1.9014v1.8672A6.84,6.84,0,0,1,561.94,61.1489Zm4.3926,2.8623V61.1489H568.96v2.8233a6.8085,6.8085,0,0,1-1.4189.1513A6.9335,6.9335,0,0,1,566.3325,64.0112Zm5.1191-1.1406V61.1489h1.6914A6.8615,6.8615,0,0,1,571.4516,62.8706Z"/>
    </g>
    <g>
      <path class="cls-1" d="M571.4409,36.65a10.79,10.79,0,1,0,10.791-10.79A10.8031,10.8031,0,0,0,571.4409,36.65Zm1.05,0a9.7407,9.7407,0,1,1,9.7412,9.7407A9.7519,9.7519,0,0,1,572.4907,36.65Z"/>
      <path class="cls-1" d="M582.2319,28.834a7.8156,7.8156,0,1,0,7.8154,7.8159A7.8253,7.8253,0,0,0,582.2319,28.834Zm6.7656,7.8159a6.7743,6.7743,0,0,1-.1279,1.2988h-2.7285V35.3213h2.7246A6.8421,6.8421,0,0,1,588.9975,36.65Zm-13.5322,0a6.8343,6.8343,0,0,1,.1328-1.3286h2.9336v2.6274h-2.9375A6.7744,6.7744,0,0,1,575.4653,36.65Zm8.1846-1.3286v2.6274h-2.627V35.3213Zm.6836-.6826H580.34v3.9926h3.9932Zm1.125,0v3.9926h3.2421a6.75,6.75,0,0,1-.4658,1.1255h-2.7763v2.8379a6.6886,6.6886,0,0,1-1.125.4829V39.7568H580.34v3.3843a6.742,6.742,0,0,1-1.126-.4438v-2.94H576.228a6.756,6.756,0,0,1-.4649-1.1255h3.4512V34.6387H575.771a6.6513,6.6513,0,0,1,.4716-1.126h2.9717v-2.91a6.6822,6.6822,0,0,1,1.126-.4438v3.354h3.9932V30.2222a6.6391,6.6391,0,0,1,1.125.4829v2.8076H588.22a6.6516,6.6516,0,0,1,.4717,1.126ZM587.81,32.83h-1.6689V31.1377A6.8267,6.8267,0,0,1,587.81,32.83Zm-4.16-2.7935V32.83h-2.627V29.9975a6.8015,6.8015,0,0,1,1.209-.1137A6.7272,6.7272,0,0,1,583.65,30.0366Zm-5.1182.9556V32.83h-1.8789A6.7993,6.7993,0,0,1,578.5317,30.9922ZM576.63,40.44h1.9014v1.8677A6.83,6.83,0,0,1,576.63,40.44Zm4.3926,2.8618V40.44h2.627v2.8233a6.5845,6.5845,0,0,1-2.627.0385Zm5.1182-1.14V40.44h1.6924A6.8446,6.8446,0,0,1,586.1411,42.1621Z"/>
    </g>
    <g>
      <path class="cls-1" d="M542.0756,78.3891a10.79,10.79,0,1,0,10.7911-10.79A10.8034,10.8034,0,0,0,542.0756,78.3891Zm1.05,0a9.74,9.74,0,1,1,9.7413,9.7413A9.7524,9.7524,0,0,1,543.1254,78.3891Z"/>
      <path class="cls-1" d="M552.8667,70.5737a7.8159,7.8159,0,1,0,7.8144,7.8154A7.8249,7.8249,0,0,0,552.8667,70.5737Zm6.7646,7.8154a6.7563,6.7563,0,0,1-.1279,1.2979h-2.7285V77.061h2.7246A6.8338,6.8338,0,0,1,559.6313,78.3891Zm-13.5312,0a6.757,6.757,0,0,1,.1337-1.3281h2.9336v2.626H546.23A6.7562,6.7562,0,0,1,546.1,78.3891Zm8.1855-1.3281v2.626h-2.6269V77.061Zm.6816-.6826H550.976V80.37h3.9912Zm1.125,0V80.37h3.2422a6.68,6.68,0,0,1-.4658,1.126h-2.7764v2.8379a6.7688,6.7688,0,0,1-1.125.4834V81.4956H550.976V84.88a6.6474,6.6474,0,0,1-1.1259-.4444v-2.94h-2.9873a6.67,6.67,0,0,1-.4649-1.126H549.85V76.3784h-3.4444a6.6682,6.6682,0,0,1,.4717-1.126H549.85V72.3413a6.7276,6.7276,0,0,1,1.1259-.4434v3.3545h3.9912v-3.291a6.6016,6.6016,0,0,1,1.125.4824v2.8086h2.7618a6.5869,6.5869,0,0,1,.4716,1.126Zm2.3516-1.8086h-1.6689V72.8764A6.822,6.822,0,0,1,558.4438,74.57Zm-4.1582-2.7949V74.57h-2.6269v-2.834a6.9329,6.9329,0,0,1,1.208-.1123A6.7874,6.7874,0,0,1,554.2856,71.7749Zm-5.1182.956V74.57h-1.88A6.7951,6.7951,0,0,1,549.1674,72.7309Zm-1.9023,9.4473h1.9023v1.8682A6.8206,6.8206,0,0,1,547.2651,82.1782Zm4.3936,2.8623V82.1782h2.6269v2.8232a6.7222,6.7222,0,0,1-1.4189.1543A6.6538,6.6538,0,0,1,551.6587,85.04Zm5.1162-1.14V82.1782h1.6914A6.7869,6.7869,0,0,1,556.7749,83.9009Z"/>
    </g>
  </g>
  <path class="cls-1" d="M575.2856,21.1914a28.3676,28.3676,0,0,1-3.11,7.2226,24.0372,24.0372,0,0,1-5.48,5.1749,20.6033,20.6033,0,0,0-2.8379,2.3925c-2.3262,2.58-3.6338,6.0069-4.7891,9.03a21.0334,21.0334,0,0,1-2.167,4.6758,18.94,18.94,0,0,1-4.6484,4.53,20.6985,20.6985,0,0,0-5.1328,5.0649,21.5478,21.5478,0,0,0-3.586,8.3652l-.1123.459c-.6162,2.5078-4.833,6.5293-7.5361,8.9l-.6348.4649.375,1.1875.7373-.6583c2.7764-2.416,7.3828-6.7675,8.0889-9.6425l.1123-.4629a20.6415,20.6415,0,0,1,3.4043-7.9785,19.5391,19.5391,0,0,1,4.9072-4.8423,20.0829,20.0829,0,0,0,4.8711-4.7481A21.6,21.6,0,0,0,560.06,45.39c1.1211-2.9365,2.3916-6.2646,4.585-8.6982a19.8616,19.8616,0,0,1,2.6885-2.2549,25.3381,25.3381,0,0,0,5.705-5.4072c1.5987-2.2451,2.8174-6.1436,3.3008-7.8379ZM555.4721,93.7593a17.683,17.683,0,0,1,2.8233-2.5567l1.54-.9922c1.4336-.8789,2.2236-1.3672,4.2266-4.2382a23.5939,23.5939,0,0,0,1.91-4.629c1.0069-2.8945,2.2608-6.496,3.8174-8.2617a14.4017,14.4017,0,0,1,3.6943-3.0879l1.1485-.75a18.74,18.74,0,0,0,4.4111-4.4218,16.1232,16.1232,0,0,0,2.293-5.3985l.9521-2.9961.0557-.1538a12.718,12.718,0,0,1,2.3379-4.3291,20.3392,20.3392,0,0,1,3.9443-3.1953,23.9491,23.9491,0,0,0,5.4043-4.5937c.128-.1573.253-.3321.377-.5166V41.4424a9.9976,9.9976,0,0,1-1.1992,2.042,23.0694,23.0694,0,0,1-5.18,4.39,21.0186,21.0186,0,0,0-4.1465,3.375,13.521,13.521,0,0,0-2.53,4.6543l-.0576.1533-.9775,3.07a15.1184,15.1184,0,0,1-2.1221,5.0625,17.7935,17.7935,0,0,1-4.1758,4.1875l-1.0957.7168a15.3437,15.3437,0,0,0-3.9287,3.2872c-1.6943,1.9218-2.9317,5.4765-4.0234,8.6132a23.8871,23.8871,0,0,1-1.7793,4.3692c-1.876,2.6933-2.5147,3.084-3.9122,3.9433l-1.5869,1.0254a19.505,19.505,0,0,0-3.3779,3.1289Z"/>
</svg>
